<svg width="512" height="512" version="1.1" xmlns="http://www.w3.org/2000/svg" desc="Created with imagetracer.js version 1.2.6" ><path fill="rgb(0,0,0)" stroke="rgb(0,0,0)" stroke-width="1" opacity="0" d="M 0 0 L 512 0 L 512 512 L 0 512 L 0 0 Z M 105 153 L 104 154 L 98 154 L 97 155 L 93 155 L 88 157 L 85 157 L 82 159 L 77 160 L 63 167 L 49 177 L 32 195 L 20 216 L 15 231 L 15 234 L 14 235 Q 15 239 13 241 L 13 250 L 12 251 L 13 272 L 14 273 L 14 278 L 17 286 L 18 292 L 25 307 L 36 323 Q 47 336 63 345 L 85 355 L 92 356 L 93 357 L 97 357 L 98 358 L 104 358 L 105 359 L 127 359 L 128 358 L 134 358 L 135 357 L 143 356 L 155 352 L 169 345 L 185 333 Q 194 324 202 313 L 210 298 L 210 296 L 212 293 L 215 284 L 216 282 L 346 282 L 346 313 L 351 324 L 359 330 L 366 333 L 380 333 L 388 329 L 394 323 L 398 314 L 398 298 L 422 298 L 422 314 L 426 323 L 433 329 L 441 333 L 455 333 L 465 328 L 471 321 L 474 313 L 474 282 L 480 282 L 489 278 L 497 269 L 499 264 L 499 260 L 500 259 L 499 249 L 495 241 L 489 234 L 480 230 L 215 230 L 212 220 L 205 205 L 192 187 L 175 171 L 155 160 L 143 156 L 140 156 L 139 155 L 128 154 L 127 153 L 105 153 Z " /><path fill="rgb(0,0,0)" stroke="rgb(0,0,0)" stroke-width="1" opacity="0" d="M 110.5 205 L 120.5 205 L 121.5 206 L 126.5 206 L 135.5 209 Q 145.59 213.91 153 221.5 L 159 229.5 L 165 243.5 Q 164.25 246.75 166 247.5 L 166 264.5 L 165 265.5 L 165 268.5 L 163 274.5 L 159 282.5 L 150.5 293 L 135.5 303 L 126.5 306 L 121.5 306 L 120.5 307 L 110.5 307 Q 109.25 304.75 104.5 306 L 91.5 301 L 78 290.5 L 72 282.5 L 66 268.5 Q 66.75 265.25 65 264.5 L 65 247.5 L 66 246.5 L 66 243.5 L 68 237.5 L 72 229.5 L 80.5 219 L 86.5 214 L 95.5 209 L 104.5 206 L 109.5 206 L 110.5 205 Z " /><path fill="rgb(83,175,255)" stroke="rgb(83,175,255)" stroke-width="1" opacity="0.2235294117647059" d="M 104.5 153 L 110 153.5 L 104.5 154 L 104.5 153 Z " /><path fill="rgb(83,175,255)" stroke="rgb(83,175,255)" stroke-width="1" opacity="0.2235294117647059" d="M 121.5 153 L 127 153.5 L 121.5 154 L 121.5 153 Z " /><path fill="rgb(83,175,255)" stroke="rgb(83,175,255)" stroke-width="1" opacity="0.2235294117647059" d="M 97.5 154 L 100 154.5 L 97.5 155 L 97.5 154 Z " /><path fill="rgb(83,175,255)" stroke="rgb(83,175,255)" stroke-width="1" opacity="0.2235294117647059" d="M 131.5 154 L 134 154.5 L 131.5 155 L 131.5 154 Z " /><path fill="rgb(83,175,255)" stroke="rgb(83,175,255)" stroke-width="1" opacity="0.2235294117647059" d="M 92.5 155 L 95 155.5 L 92.5 156 L 92.5 155 Z " /><path fill="rgb(83,175,255)" stroke="rgb(83,175,255)" stroke-width="1" opacity="0.2235294117647059" d="M 136.5 155 L 139 155.5 L 136.5 156 L 136.5 155 Z " /><path fill="rgb(83,175,255)" stroke="rgb(83,175,255)" stroke-width="1" opacity="0.2235294117647059" d="M 88.5 156 L 90 156.5 L 88.5 157 L 88.5 156 Z " /><path fill="rgb(83,175,255)" stroke="rgb(83,175,255)" stroke-width="1" opacity="0.2235294117647059" d="M 141.5 156 L 143 156.5 L 141.5 157 L 141.5 156 Z " /><path fill="rgb(83,175,255)" stroke="rgb(83,175,255)" stroke-width="1" opacity="0.2235294117647059" d="M 84.5 157 L 87 157.5 L 82.5 159 L 82.5 158 L 84.5 157 Z " /><path fill="rgb(83,175,255)" stroke="rgb(83,175,255)" stroke-width="1" opacity="0.2235294117647059" d="M 144.5 157 L 146 157.5 L 144.5 158 L 144.5 157 Z " /><path fill="rgb(83,175,255)" stroke="rgb(83,175,255)" stroke-width="1" opacity="0.2235294117647059" d="M 148.5 158 L 148.5 159 L 148.5 158 Z " /><path fill="rgb(83,175,255)" stroke="rgb(83,175,255)" stroke-width="1" opacity="0.2235294117647059" d="M 79.5 159 L 79.5 160 L 79.5 159 Z " /><path fill="rgb(83,175,255)" stroke="rgb(83,175,255)" stroke-width="1" opacity="0.2235294117647059" d="M 150.5 159 L 152 159.5 L 150.5 160 L 150.5 159 Z " /><path fill="rgb(83,175,255)" stroke="rgb(83,175,255)" stroke-width="1" opacity="0.2235294117647059" d="M 76.5 160 L 78 160.5 L 76.5 161 L 76.5 160 Z " /><path fill="rgb(83,175,255)" stroke="rgb(83,175,255)" stroke-width="1" opacity="0.2235294117647059" d="M 153.5 160 L 157 161.5 L 155.5 162 L 153 160.5 L 153.5 160 Z " /><path fill="rgb(83,175,255)" stroke="rgb(83,175,255)" stroke-width="1" opacity="0.2235294117647059" d="M 74.5 161 L 74.5 162 L 74.5 161 Z " /><path fill="rgb(83,175,255)" stroke="rgb(83,175,255)" stroke-width="1" opacity="0.2235294117647059" d="M 72.5 162 L 72.5 163 L 72.5 162 Z " /><path fill="rgb(83,175,255)" stroke="rgb(83,175,255)" stroke-width="1" opacity="0.2235294117647059" d="M 158.5 162 L 158.5 163 L 158.5 162 Z " /><path fill="rgb(83,175,255)" stroke="rgb(83,175,255)" stroke-width="1" opacity="0.2235294117647059" d="M 70.5 163 L 70.5 164 L 70.5 163 Z " /><path fill="rgb(83,175,255)" stroke="rgb(83,175,255)" stroke-width="1" opacity="0.2235294117647059" d="M 160.5 163 L 160.5 164 L 160.5 163 Z " /><path fill="rgb(83,175,255)" stroke="rgb(83,175,255)" stroke-width="1" opacity="0.2235294117647059" d="M 68.5 164 L 68.5 165 L 68.5 164 Z " /><path fill="rgb(83,175,255)" stroke="rgb(83,175,255)" stroke-width="1" opacity="0.2235294117647059" d="M 162.5 164 L 162.5 165 L 162.5 164 Z " /><path fill="rgb(83,175,255)" stroke="rgb(83,175,255)" stroke-width="1" opacity="0.2235294117647059" d="M 66.5 165 L 66.5 166 L 66.5 165 Z " /><path fill="rgb(83,175,255)" stroke="rgb(83,175,255)" stroke-width="1" opacity="0.2235294117647059" d="M 164.5 165 L 164.5 166 L 164.5 165 Z " /><path fill="rgb(83,175,255)" stroke="rgb(83,175,255)" stroke-width="1" opacity="0.2235294117647059" d="M 64.5 166 Q 66 167 63.5 168 L 61.5 169 Q 60 168 62.5 167 L 64.5 166 Z " /><path fill="rgb(83,175,255)" stroke="rgb(83,175,255)" stroke-width="1" opacity="0.2235294117647059" d="M 166.5 166 L 177 173.5 L 176.5 174 L 174.5 172 L 167.5 168 Q 165 167 166.5 166 Z " /><path fill="rgb(83,175,255)" stroke="rgb(83,175,255)" stroke-width="1" opacity="0.2235294117647059" d="M 59.5 169 Q 61 170 58.5 171 Q 57 170 59.5 169 Z " /><path fill="rgb(83,175,255)" stroke="rgb(83,175,255)" stroke-width="1" opacity="0.2235294117647059" d="M 56.5 171 Q 58 172 55.5 173 Q 54 172 56.5 171 Z " /><path fill="rgb(83,175,255)" stroke="rgb(83,175,255)" stroke-width="1" opacity="0.2235294117647059" d="M 53.5 173 L 54 173.5 L 50.5 177 L 50 176.5 L 53.5 173 Z " /><path fill="rgb(83,175,255)" stroke="rgb(83,175,255)" stroke-width="1" opacity="0.2235294117647059" d="M 178.5 174 L 183 178.5 L 182.5 179 L 178 174.5 L 178.5 174 Z " /><path fill="rgb(83,175,255)" stroke="rgb(83,175,255)" stroke-width="1" opacity="0.2235294117647059" d="M 48.5 177 L 49 177.5 L 36.5 190 L 36 189.5 L 48.5 177 Z " /><path fill="rgb(83,175,255)" stroke="rgb(83,175,255)" stroke-width="1" opacity="0.2235294117647059" d="M 184.5 179 L 197 192.5 L 203 201.5 Q 202 203 201 200.5 L 196 192.5 L 184 179.5 L 184.5 179 Z " /><path fill="rgb(83,175,255)" stroke="rgb(83,175,255)" stroke-width="1" opacity="0.2235294117647059" d="M 35.5 191 L 36 191.5 L 33 194.5 L 30.5 198 L 30 197.5 L 32 195.5 L 35.5 191 Z " /><path fill="rgb(83,175,255)" stroke="rgb(83,175,255)" stroke-width="1" opacity="0.2235294117647059" d="M 29.5 199 L 29 200.5 L 27.5 203 L 28 201.5 L 29.5 199 Z " /><path fill="rgb(83,175,255)" stroke="rgb(83,175,255)" stroke-width="1" opacity="0.2235294117647059" d="M 203.5 203 L 210 215.5 L 209 215.5 L 203 203.5 L 203.5 203 Z " /><path fill="rgb(83,175,255)" stroke="rgb(83,175,255)" stroke-width="1" opacity="0.2235294117647059" d="M 26.5 204 L 26 205.5 L 23.5 210 L 24 208.5 L 26.5 204 Z " /><path fill="rgb(83,175,255)" stroke="rgb(83,175,255)" stroke-width="1" opacity="0.2235294117647059" d="M 106.5 205 L 110 205.5 L 106.5 206 L 106.5 205 Z " /><path fill="rgb(83,175,255)" stroke="rgb(83,175,255)" stroke-width="1" opacity="0.2235294117647059" d="M 121.5 205 L 125 205.5 L 121.5 206 L 121.5 205 Z " /><path fill="rgb(83,175,255)" stroke="rgb(83,175,255)" stroke-width="1" opacity="0.2235294117647059" d="M 102.5 206 L 104 206.5 L 102.5 207 L 102.5 206 Z " /><path fill="rgb(83,175,255)" stroke="rgb(83,175,255)" stroke-width="1" opacity="0.2235294117647059" d="M 127.5 206 L 129 206.5 L 127.5 207 L 127.5 206 Z " /><path fill="rgb(83,175,255)" stroke="rgb(83,175,255)" stroke-width="1" opacity="0.2235294117647059" d="M 99.5 207 L 101 207.5 L 99.5 208 L 99.5 207 Z " /><path fill="rgb(83,175,255)" stroke="rgb(83,175,255)" stroke-width="1" opacity="0.2235294117647059" d="M 130.5 207 L 132 207.5 L 130.5 208 L 130.5 207 Z " /><path fill="rgb(83,175,255)" stroke="rgb(83,175,255)" stroke-width="1" opacity="0.2235294117647059" d="M 96.5 208 L 98 208.5 L 96.5 209 L 96.5 208 Z " /><path fill="rgb(83,175,255)" stroke="rgb(83,175,255)" stroke-width="1" opacity="0.2235294117647059" d="M 133.5 208 L 135 208.5 L 133.5 209 L 133.5 208 Z " /><path fill="rgb(83,175,255)" stroke="rgb(83,175,255)" stroke-width="1" opacity="0.2235294117647059" d="M 94.5 209 L 94.5 210 L 94.5 209 Z " /><path fill="rgb(83,175,255)" stroke="rgb(83,175,255)" stroke-width="1" opacity="0.2235294117647059" d="M 136.5 209 L 136.5 210 L 136.5 209 Z " /><path fill="rgb(83,175,255)" stroke="rgb(83,175,255)" stroke-width="1" opacity="0.2235294117647059" d="M 92.5 210 L 92.5 211 L 92.5 210 Z " /><path fill="rgb(83,175,255)" stroke="rgb(83,175,255)" stroke-width="1" opacity="0.2235294117647059" d="M 138.5 210 L 138.5 211 L 138.5 210 Z " /><path fill="rgb(83,175,255)" stroke="rgb(83,175,255)" stroke-width="1" opacity="0.2235294117647059" d="M 22.5 211 L 23 212.5 L 20.5 217 L 20 215.5 L 22.5 211 Z " /><path fill="rgb(83,175,255)" stroke="rgb(83,175,255)" stroke-width="1" opacity="0.2235294117647059" d="M 90.5 211 Q 92 212 89.5 213 L 87.5 214 Q 86 213 88.5 212 L 90.5 211 Z " /><path fill="rgb(83,175,255)" stroke="rgb(83,175,255)" stroke-width="1" opacity="0.2235294117647059" d="M 140.5 211 L 154 221.5 L 159 228.5 Q 158 230 157 227.5 L 150.5 219 L 141.5 213 Q 139 212 140.5 211 Z " /><path fill="rgb(83,175,255)" stroke="rgb(83,175,255)" stroke-width="1" opacity="0.2235294117647059" d="M 85.5 214 L 86 214.5 L 81.5 219 L 78.5 221 L 78 220.5 L 80.5 218 L 85.5 214 Z " /><path fill="rgb(83,175,255)" stroke="rgb(83,175,255)" stroke-width="1" opacity="0.2235294117647059" d="M 210.5 217 L 210.5 218 L 210.5 217 Z " /><path fill="rgb(83,175,255)" stroke="rgb(83,175,255)" stroke-width="1" opacity="0.2235294117647059" d="M 19.5 218 L 20 219.5 L 18.5 222 L 18 220.5 L 19.5 218 Z " /><path fill="rgb(83,175,255)" stroke="rgb(83,175,255)" stroke-width="1" opacity="0.2235294117647059" d="M 211.5 219 L 212 220.5 L 211 220.5 L 211.5 219 Z " /><path fill="rgb(83,175,255)" stroke="rgb(83,175,255)" stroke-width="1" opacity="0.2235294117647059" d="M 77.5 222 L 78 222.5 L 74 226.5 L 72.5 229 L 73 227.5 L 77.5 222 Z " /><path fill="rgb(83,175,255)" stroke="rgb(83,175,255)" stroke-width="1" opacity="0.2235294117647059" d="M 212.5 222 L 213 223.5 L 212 223.5 L 212.5 222 Z " /><path fill="rgb(83,175,255)" stroke="rgb(83,175,255)" stroke-width="1" opacity="0.2235294117647059" d="M 17.5 223 L 18 224.5 L 17 224.5 L 17.5 223 Z " /><path fill="rgb(83,175,255)" stroke="rgb(83,175,255)" stroke-width="1" opacity="0.2235294117647059" d="M 213.5 225 L 214 226.5 L 213 226.5 L 213.5 225 Z " /><path fill="rgb(83,175,255)" stroke="rgb(83,175,255)" stroke-width="1" opacity="0.2235294117647059" d="M 16.5 227 L 17 228.5 L 16 228.5 L 16.5 227 Z " /><path fill="rgb(83,175,255)" stroke="rgb(83,175,255)" stroke-width="1" opacity="0.2235294117647059" d="M 214.5 228 L 215 229.5 L 214 229.5 L 214.5 228 Z " /><path fill="rgb(83,175,255)" stroke="rgb(83,175,255)" stroke-width="1" opacity="0.2235294117647059" d="M 15.5 230 L 16 232.5 L 15 232.5 L 15.5 230 Z " /><path fill="rgb(83,175,255)" stroke="rgb(83,175,255)" stroke-width="1" opacity="0.2235294117647059" d="M 71.5 230 L 71 231.5 L 68.5 237 L 68 235.5 L 71.5 230 Z " /><path fill="rgb(83,175,255)" stroke="rgb(83,175,255)" stroke-width="1" opacity="0.2235294117647059" d="M 159.5 230 L 163 236.5 L 162 236.5 L 159 230.5 L 159.5 230 Z " /><path fill="rgb(83,175,255)" stroke="rgb(83,175,255)" stroke-width="1" opacity="0.2235294117647059" d="M 476.5 230 L 480 230.5 L 476.5 231 L 476.5 230 Z " /><path fill="rgb(83,175,255)" stroke="rgb(83,175,255)" stroke-width="1" opacity="0.2235294117647059" d="M 481.5 231 L 483 231.5 L 481.5 232 L 481.5 231 Z " /><path fill="rgb(83,175,255)" stroke="rgb(83,175,255)" stroke-width="1" opacity="0.2235294117647059" d="M 484.5 232 L 484.5 233 L 484.5 232 Z " /><path fill="rgb(83,175,255)" stroke="rgb(83,175,255)" stroke-width="1" opacity="0.2235294117647059" d="M 486.5 233 L 486.5 234 L 486.5 233 Z " /><path fill="rgb(83,175,255)" stroke="rgb(83,175,255)" stroke-width="1" opacity="0.2235294117647059" d="M 14.5 234 L 15 237.5 L 14 237.5 L 14.5 234 Z " /><path fill="rgb(83,175,255)" stroke="rgb(83,175,255)" stroke-width="1" opacity="0.2235294117647059" d="M 488.5 234 L 495 240.5 L 494.5 241 L 488 234.5 L 488.5 234 Z " /><path fill="rgb(83,175,255)" stroke="rgb(83,175,255)" stroke-width="1" opacity="0.2235294117647059" d="M 67.5 238 L 68 239.5 L 66.5 243 L 66 240.5 L 67.5 238 Z " /><path fill="rgb(83,175,255)" stroke="rgb(83,175,255)" stroke-width="1" opacity="0.2235294117647059" d="M 163.5 238 L 165 242.5 L 164 242.5 L 163.5 238 Z " /><path fill="rgb(83,175,255)" stroke="rgb(83,175,255)" stroke-width="1" opacity="0.2235294117647059" d="M 13.5 240 L 14 243.5 L 13 243.5 L 13.5 240 Z " /><path fill="rgb(83,175,255)" stroke="rgb(83,175,255)" stroke-width="1" opacity="0.2235294117647059" d="M 495.5 242 L 498 246.5 L 497 246.5 L 495 242.5 L 495.5 242 Z " /><path fill="rgb(83,175,255)" stroke="rgb(83,175,255)" stroke-width="1" opacity="0.2235294117647059" d="M 65.5 244 L 66 246.5 L 65 246.5 L 65.5 244 Z " /><path fill="rgb(83,175,255)" stroke="rgb(83,175,255)" stroke-width="1" opacity="0.2235294117647059" d="M 165.5 244 L 166 246.5 L 165 246.5 L 165.5 244 Z " /><path fill="rgb(83,175,255)" stroke="rgb(83,175,255)" stroke-width="1" opacity="0.2235294117647059" d="M 498.5 248 L 499 249.5 L 498 249.5 L 498.5 248 Z " /><path fill="rgb(83,175,255)" stroke="rgb(83,175,255)" stroke-width="1" opacity="0.2235294117647059" d="M 12.5 250 L 13 261.5 L 12 261.5 L 12.5 250 Z " /><path fill="rgb(83,175,255)" stroke="rgb(83,175,255)" stroke-width="1" opacity="0.2235294117647059" d="M 64.5 250 L 65 261.5 L 64 261.5 L 64.5 250 Z " /><path fill="rgb(83,175,255)" stroke="rgb(83,175,255)" stroke-width="1" opacity="0.2235294117647059" d="M 166.5 250 L 167 261.5 L 166 261.5 L 166.5 250 Z " /><path fill="rgb(83,175,255)" stroke="rgb(83,175,255)" stroke-width="1" opacity="0.2235294117647059" d="M 499.5 253 L 500 258.5 L 499 258.5 L 499.5 253 Z " /><path fill="rgb(83,175,255)" stroke="rgb(83,175,255)" stroke-width="1" opacity="0.2235294117647059" d="M 498.5 262 L 499 263.5 L 498 263.5 L 498.5 262 Z " /><path fill="rgb(83,175,255)" stroke="rgb(83,175,255)" stroke-width="1" opacity="0.2235294117647059" d="M 65.5 265 L 66 267.5 L 65 267.5 L 65.5 265 Z " /><path fill="rgb(83,175,255)" stroke="rgb(83,175,255)" stroke-width="1" opacity="0.2235294117647059" d="M 165.5 265 L 166 267.5 L 165 267.5 L 165.5 265 Z " /><path fill="rgb(83,175,255)" stroke="rgb(83,175,255)" stroke-width="1" opacity="0.2235294117647059" d="M 497.5 265 L 498 266.5 L 495.5 270 L 496 268.5 L 497.5 265 Z " /><path fill="rgb(83,175,255)" stroke="rgb(83,175,255)" stroke-width="1" opacity="0.2235294117647059" d="M 13.5 268 L 14 271.5 L 13 271.5 L 13.5 268 Z " /><path fill="rgb(83,175,255)" stroke="rgb(83,175,255)" stroke-width="1" opacity="0.2235294117647059" d="M 66.5 269 L 68 273.5 L 67 273.5 Q 65.25 271.75 66.5 269 Z " /><path fill="rgb(83,175,255)" stroke="rgb(83,175,255)" stroke-width="1" opacity="0.2235294117647059" d="M 164.5 269 L 165 271.5 L 163.5 274 L 163 272.5 L 164.5 269 Z " /><path fill="rgb(83,175,255)" stroke="rgb(83,175,255)" stroke-width="1" opacity="0.2235294117647059" d="M 494.5 271 L 495 271.5 L 488.5 278 L 488 277.5 L 494.5 271 Z " /><path fill="rgb(83,175,255)" stroke="rgb(83,175,255)" stroke-width="1" opacity="0.2235294117647059" d="M 14.5 274 L 15 277.5 L 14 277.5 L 14.5 274 Z " /><path fill="rgb(83,175,255)" stroke="rgb(83,175,255)" stroke-width="1" opacity="0.2235294117647059" d="M 68.5 275 L 72 281.5 Q 71 283 70 280.5 L 68 276.5 L 68.5 275 Z " /><path fill="rgb(83,175,255)" stroke="rgb(83,175,255)" stroke-width="1" opacity="0.2235294117647059" d="M 162.5 275 L 163 276.5 L 159.5 282 L 160 280.5 L 162.5 275 Z " /><path fill="rgb(83,175,255)" stroke="rgb(83,175,255)" stroke-width="1" opacity="0.2235294117647059" d="M 486.5 278 L 486.5 279 L 486.5 278 Z " /><path fill="rgb(83,175,255)" stroke="rgb(83,175,255)" stroke-width="1" opacity="0.2235294117647059" d="M 15.5 279 L 16 281.5 L 15 281.5 L 15.5 279 Z " /><path fill="rgb(83,175,255)" stroke="rgb(83,175,255)" stroke-width="1" opacity="0.2235294117647059" d="M 484.5 279 L 484.5 280 L 484.5 279 Z " /><path fill="rgb(83,175,255)" stroke="rgb(83,175,255)" stroke-width="1" opacity="0.2235294117647059" d="M 481.5 280 L 483 280.5 L 481.5 281 L 481.5 280 Z " /><path fill="rgb(83,175,255)" stroke="rgb(83,175,255)" stroke-width="1" opacity="0.2235294117647059" d="M 477.5 281 L 480 281.5 L 477.5 282 L 477.5 281 Z " /><path fill="rgb(83,175,255)" stroke="rgb(83,175,255)" stroke-width="1" opacity="0.2235294117647059" d="M 214.5 282 L 215 283.5 L 214 283.5 L 214.5 282 Z " /><path fill="rgb(83,175,255)" stroke="rgb(83,175,255)" stroke-width="1" opacity="0.2235294117647059" d="M 346.5 282 L 347 312.5 L 346 312.5 L 346.5 282 Z " /><path fill="rgb(83,175,255)" stroke="rgb(83,175,255)" stroke-width="1" opacity="0.2235294117647059" d="M 16.5 283 L 17 284.5 L 16 284.5 L 16.5 283 Z " /><path fill="rgb(83,175,255)" stroke="rgb(83,175,255)" stroke-width="1" opacity="0.2235294117647059" d="M 72.5 283 L 78 289.5 L 77.5 290 L 73 285.5 L 72.5 283 Z " /><path fill="rgb(83,175,255)" stroke="rgb(83,175,255)" stroke-width="1" opacity="0.2235294117647059" d="M 158.5 283 L 158 284.5 L 150.5 294 L 140.5 301 Q 139 300 141.5 299 L 152 291.5 L 158.5 283 Z " /><path fill="rgb(83,175,255)" stroke="rgb(83,175,255)" stroke-width="1" opacity="0.2235294117647059" d="M 213.5 285 L 214 286.5 L 213 286.5 L 213.5 285 Z " /><path fill="rgb(83,175,255)" stroke="rgb(83,175,255)" stroke-width="1" opacity="0.2235294117647059" d="M 17.5 287 L 18 288.5 L 17 288.5 L 17.5 287 Z " /><path fill="rgb(83,175,255)" stroke="rgb(83,175,255)" stroke-width="1" opacity="0.2235294117647059" d="M 212.5 288 L 213 289.5 L 212 289.5 L 212.5 288 Z " /><path fill="rgb(83,175,255)" stroke="rgb(83,175,255)" stroke-width="1" opacity="0.2235294117647059" d="M 18.5 290 L 20 293.5 L 19 293.5 Q 17.29 291.96 18.5 290 Z " /><path fill="rgb(83,175,255)" stroke="rgb(83,175,255)" stroke-width="1" opacity="0.2235294117647059" d="M 78.5 291 L 86 297.5 L 85.5 298 L 81.5 294 L 78 291.5 L 78.5 291 Z " /><path fill="rgb(83,175,255)" stroke="rgb(83,175,255)" stroke-width="1" opacity="0.2235294117647059" d="M 211.5 291 L 212 292.5 L 211 292.5 L 211.5 291 Z " /><path fill="rgb(83,175,255)" stroke="rgb(83,175,255)" stroke-width="1" opacity="0.2235294117647059" d="M 210.5 294 L 210.5 295 L 210.5 294 Z " /><path fill="rgb(83,175,255)" stroke="rgb(83,175,255)" stroke-width="1" opacity="0.2235294117647059" d="M 20.5 295 L 27 307.5 Q 26 309 25 306.5 L 20 296.5 L 20.5 295 Z " /><path fill="rgb(83,175,255)" stroke="rgb(83,175,255)" stroke-width="1" opacity="0.2235294117647059" d="M 209.5 296 L 210 297.5 L 207.5 302 L 207 300.5 L 209.5 296 Z " /><path fill="rgb(83,175,255)" stroke="rgb(83,175,255)" stroke-width="1" opacity="0.2235294117647059" d="M 87.5 298 L 91 300.5 L 89.5 300 Q 85.69 299.31 87.5 298 Z " /><path fill="rgb(83,175,255)" stroke="rgb(83,175,255)" stroke-width="1" opacity="0.2235294117647059" d="M 92.5 301 L 92.5 302 L 92.5 301 Z " /><path fill="rgb(83,175,255)" stroke="rgb(83,175,255)" stroke-width="1" opacity="0.2235294117647059" d="M 138.5 301 L 138.5 302 L 138.5 301 Z " /><path fill="rgb(83,175,255)" stroke="rgb(83,175,255)" stroke-width="1" opacity="0.2235294117647059" d="M 94.5 302 L 94.5 303 L 94.5 302 Z " /><path fill="rgb(83,175,255)" stroke="rgb(83,175,255)" stroke-width="1" opacity="0.2235294117647059" d="M 136.5 302 L 136.5 303 L 136.5 302 Z " /><path fill="rgb(83,175,255)" stroke="rgb(83,175,255)" stroke-width="1" opacity="0.2235294117647059" d="M 96.5 303 L 98 303.5 L 96.5 304 L 96.5 303 Z " /><path fill="rgb(83,175,255)" stroke="rgb(83,175,255)" stroke-width="1" opacity="0.2235294117647059" d="M 133.5 303 L 135 303.5 L 133.5 304 L 133.5 303 Z " /><path fill="rgb(83,175,255)" stroke="rgb(83,175,255)" stroke-width="1" opacity="0.2235294117647059" d="M 206.5 303 L 206 304.5 L 203.5 309 L 204 307.5 L 206.5 303 Z " /><path fill="rgb(83,175,255)" stroke="rgb(83,175,255)" stroke-width="1" opacity="0.2235294117647059" d="M 99.5 304 L 101 304.5 L 99.5 305 L 99.5 304 Z " /><path fill="rgb(83,175,255)" stroke="rgb(83,175,255)" stroke-width="1" opacity="0.2235294117647059" d="M 130.5 304 L 132 304.5 L 130.5 305 L 130.5 304 Z " /><path fill="rgb(83,175,255)" stroke="rgb(83,175,255)" stroke-width="1" opacity="0.2235294117647059" d="M 102.5 305 L 104 305.5 L 102.5 306 L 102.5 305 Z " /><path fill="rgb(83,175,255)" stroke="rgb(83,175,255)" stroke-width="1" opacity="0.2235294117647059" d="M 127.5 305 L 129 305.5 L 127.5 306 L 127.5 305 Z " /><path fill="rgb(83,175,255)" stroke="rgb(83,175,255)" stroke-width="1" opacity="0.2235294117647059" d="M 106.5 306 L 110 306.5 L 106.5 307 L 106.5 306 Z " /><path fill="rgb(83,175,255)" stroke="rgb(83,175,255)" stroke-width="1" opacity="0.2235294117647059" d="M 121.5 306 L 125 306.5 L 121.5 307 L 121.5 306 Z " /><path fill="rgb(83,175,255)" stroke="rgb(83,175,255)" stroke-width="1" opacity="0.2235294117647059" d="M 473.5 308 L 474 312.5 L 473 312.5 L 473.5 308 Z " /><path fill="rgb(83,175,255)" stroke="rgb(83,175,255)" stroke-width="1" opacity="0.2235294117647059" d="M 27.5 309 L 33 316.5 L 32.5 317 L 30 314.5 L 27 309.5 L 27.5 309 Z " /><path fill="rgb(83,175,255)" stroke="rgb(83,175,255)" stroke-width="1" opacity="0.2235294117647059" d="M 202.5 310 L 202 311.5 L 197 319.5 L 184.5 333 Q 175.68 341.18 164.5 347 Q 163 346 165.5 345 L 168.5 344 L 178.5 337 L 191 325.5 L 202.5 310 Z " /><path fill="rgb(83,175,255)" stroke="rgb(83,175,255)" stroke-width="1" opacity="0.2235294117647059" d="M 397.5 311 L 398 313.5 L 397 313.5 L 397.5 311 Z " /><path fill="rgb(83,175,255)" stroke="rgb(83,175,255)" stroke-width="1" opacity="0.2235294117647059" d="M 422.5 311 L 423 313.5 L 422 313.5 L 422.5 311 Z " /><path fill="rgb(83,175,255)" stroke="rgb(83,175,255)" stroke-width="1" opacity="0.2235294117647059" d="M 347.5 314 L 348 315.5 L 347 315.5 L 347.5 314 Z " /><path fill="rgb(83,175,255)" stroke="rgb(83,175,255)" stroke-width="1" opacity="0.2235294117647059" d="M 423.5 315 L 424 316.5 L 423 316.5 L 423.5 315 Z " /><path fill="rgb(83,175,255)" stroke="rgb(83,175,255)" stroke-width="1" opacity="0.2235294117647059" d="M 472.5 315 L 472.5 316 L 472.5 315 Z " /><path fill="rgb(83,175,255)" stroke="rgb(83,175,255)" stroke-width="1" opacity="0.2235294117647059" d="M 396.5 316 L 396.5 317 L 396.5 316 Z " /><path fill="rgb(83,175,255)" stroke="rgb(83,175,255)" stroke-width="1" opacity="0.2235294117647059" d="M 348.5 317 Q 350.9 323.6 356 327.5 L 355.5 328 L 351 323.5 L 348 318.5 L 348.5 317 Z " /><path fill="rgb(83,175,255)" stroke="rgb(83,175,255)" stroke-width="1" opacity="0.2235294117647059" d="M 471.5 317 L 472 318.5 L 469.5 322 L 470 320.5 L 471.5 317 Z " /><path fill="rgb(83,175,255)" stroke="rgb(83,175,255)" stroke-width="1" opacity="0.2235294117647059" d="M 33.5 318 L 48.5 334 L 57 340.5 L 56.5 341 L 54.5 339 Q 43.5 332.5 36 322.5 L 33 318.5 L 33.5 318 Z " /><path fill="rgb(83,175,255)" stroke="rgb(83,175,255)" stroke-width="1" opacity="0.2235294117647059" d="M 395.5 318 L 395.5 319 L 395.5 318 Z " /><path fill="rgb(83,175,255)" stroke="rgb(83,175,255)" stroke-width="1" opacity="0.2235294117647059" d="M 424.5 318 L 424.5 319 L 424.5 318 Z " /><path fill="rgb(83,175,255)" stroke="rgb(83,175,255)" stroke-width="1" opacity="0.2235294117647059" d="M 394.5 320 L 394.5 321 L 394.5 320 Z " /><path fill="rgb(83,175,255)" stroke="rgb(83,175,255)" stroke-width="1" opacity="0.2235294117647059" d="M 425.5 320 L 425.5 321 L 425.5 320 Z " /><path fill="rgb(83,175,255)" stroke="rgb(83,175,255)" stroke-width="1" opacity="0.2235294117647059" d="M 393.5 322 L 394 322.5 L 387.5 329 L 387 328.5 L 393.5 322 Z " /><path fill="rgb(83,175,255)" stroke="rgb(83,175,255)" stroke-width="1" opacity="0.2235294117647059" d="M 426.5 322 L 433 328.5 L 432.5 329 L 426 322.5 L 426.5 322 Z " /><path fill="rgb(83,175,255)" stroke="rgb(83,175,255)" stroke-width="1" opacity="0.2235294117647059" d="M 468.5 323 L 469 323.5 L 464.5 328 L 464 327.5 L 468.5 323 Z " /><path fill="rgb(83,175,255)" stroke="rgb(83,175,255)" stroke-width="1" opacity="0.2235294117647059" d="M 357.5 328 Q 360 329 358.5 330 Q 356 329 357.5 328 Z " /><path fill="rgb(83,175,255)" stroke="rgb(83,175,255)" stroke-width="1" opacity="0.2235294117647059" d="M 462.5 328 Q 464 329 461.5 330 Q 460 329 462.5 328 Z " /><path fill="rgb(83,175,255)" stroke="rgb(83,175,255)" stroke-width="1" opacity="0.2235294117647059" d="M 385.5 329 Q 387 330 384.5 331 L 381.5 332 L 381.5 331 L 385.5 329 Z " /><path fill="rgb(83,175,255)" stroke="rgb(83,175,255)" stroke-width="1" opacity="0.2235294117647059" d="M 434.5 329 L 437 330.5 L 435.5 331 Q 433 330 434.5 329 Z " /><path fill="rgb(83,175,255)" stroke="rgb(83,175,255)" stroke-width="1" opacity="0.2235294117647059" d="M 360.5 330 L 360.5 331 L 360.5 330 Z " /><path fill="rgb(83,175,255)" stroke="rgb(83,175,255)" stroke-width="1" opacity="0.2235294117647059" d="M 459.5 330 L 459.5 331 L 459.5 330 Z " /><path fill="rgb(83,175,255)" stroke="rgb(83,175,255)" stroke-width="1" opacity="0.2235294117647059" d="M 362.5 331 L 364 331.5 L 362.5 332 L 362.5 331 Z " /><path fill="rgb(83,175,255)" stroke="rgb(83,175,255)" stroke-width="1" opacity="0.2235294117647059" d="M 438.5 331 L 438.5 332 L 438.5 331 Z " /><path fill="rgb(83,175,255)" stroke="rgb(83,175,255)" stroke-width="1" opacity="0.2235294117647059" d="M 457.5 331 L 457.5 332 L 457.5 331 Z " /><path fill="rgb(83,175,255)" stroke="rgb(83,175,255)" stroke-width="1" opacity="0.2235294117647059" d="M 365.5 332 L 367 332.5 L 365.5 333 L 365.5 332 Z " /><path fill="rgb(83,175,255)" stroke="rgb(83,175,255)" stroke-width="1" opacity="0.2235294117647059" d="M 377.5 332 L 380 332.5 L 377.5 333 L 377.5 332 Z " /><path fill="rgb(83,175,255)" stroke="rgb(83,175,255)" stroke-width="1" opacity="0.2235294117647059" d="M 440.5 332 L 443 332.5 L 440.5 333 L 440.5 332 Z " /><path fill="rgb(83,175,255)" stroke="rgb(83,175,255)" stroke-width="1" opacity="0.2235294117647059" d="M 453.5 332 L 455 332.5 L 453.5 333 L 453.5 332 Z " /><path fill="rgb(83,175,255)" stroke="rgb(83,175,255)" stroke-width="1" opacity="0.2235294117647059" d="M 58.5 341 Q 61 342 59.5 343 Q 57 342 58.5 341 Z " /><path fill="rgb(83,175,255)" stroke="rgb(83,175,255)" stroke-width="1" opacity="0.2235294117647059" d="M 61.5 343 L 65 345.5 L 63.5 345 Q 59.69 344.31 61.5 343 Z " /><path fill="rgb(83,175,255)" stroke="rgb(83,175,255)" stroke-width="1" opacity="0.2235294117647059" d="M 66.5 346 L 66.5 347 L 66.5 346 Z " /><path fill="rgb(83,175,255)" stroke="rgb(83,175,255)" stroke-width="1" opacity="0.2235294117647059" d="M 68.5 347 L 68.5 348 L 68.5 347 Z " /><path fill="rgb(83,175,255)" stroke="rgb(83,175,255)" stroke-width="1" opacity="0.2235294117647059" d="M 162.5 347 L 162.5 348 L 162.5 347 Z " /><path fill="rgb(83,175,255)" stroke="rgb(83,175,255)" stroke-width="1" opacity="0.2235294117647059" d="M 70.5 348 L 70.5 349 L 70.5 348 Z " /><path fill="rgb(83,175,255)" stroke="rgb(83,175,255)" stroke-width="1" opacity="0.2235294117647059" d="M 160.5 348 L 160.5 349 L 160.5 348 Z " /><path fill="rgb(83,175,255)" stroke="rgb(83,175,255)" stroke-width="1" opacity="0.2235294117647059" d="M 72.5 349 L 72.5 350 L 72.5 349 Z " /><path fill="rgb(83,175,255)" stroke="rgb(83,175,255)" stroke-width="1" opacity="0.2235294117647059" d="M 158.5 349 L 158.5 350 L 158.5 349 Z " /><path fill="rgb(83,175,255)" stroke="rgb(83,175,255)" stroke-width="1" opacity="0.2235294117647059" d="M 74.5 350 L 78 351.5 L 76.5 352 L 74 350.5 L 74.5 350 Z " /><path fill="rgb(83,175,255)" stroke="rgb(83,175,255)" stroke-width="1" opacity="0.2235294117647059" d="M 155.5 350 L 157 350.5 L 153.5 352 L 153.5 351 L 155.5 350 Z " /><path fill="rgb(83,175,255)" stroke="rgb(83,175,255)" stroke-width="1" opacity="0.2235294117647059" d="M 79.5 352 L 81 352.5 L 79.5 353 L 79.5 352 Z " /><path fill="rgb(83,175,255)" stroke="rgb(83,175,255)" stroke-width="1" opacity="0.2235294117647059" d="M 150.5 352 L 152 352.5 L 150.5 353 L 150.5 352 Z " /><path fill="rgb(83,175,255)" stroke="rgb(83,175,255)" stroke-width="1" opacity="0.2235294117647059" d="M 82.5 353 L 87 354.5 L 84.5 355 L 82 353.5 L 82.5 353 Z " /><path fill="rgb(83,175,255)" stroke="rgb(83,175,255)" stroke-width="1" opacity="0.2235294117647059" d="M 147.5 353 L 149 353.5 L 147.5 354 L 147.5 353 Z " /><path fill="rgb(83,175,255)" stroke="rgb(83,175,255)" stroke-width="1" opacity="0.2235294117647059" d="M 144.5 354 L 146 354.5 L 144.5 355 L 144.5 354 Z " /><path fill="rgb(83,175,255)" stroke="rgb(83,175,255)" stroke-width="1" opacity="0.2235294117647059" d="M 88.5 355 L 91 355.5 L 88.5 356 L 88.5 355 Z " /><path fill="rgb(83,175,255)" stroke="rgb(83,175,255)" stroke-width="1" opacity="0.2235294117647059" d="M 140.5 355 L 143 355.5 L 140.5 356 L 140.5 355 Z " /><path fill="rgb(83,175,255)" stroke="rgb(83,175,255)" stroke-width="1" opacity="0.2235294117647059" d="M 92.5 356 L 95 356.5 L 92.5 357 L 92.5 356 Z " /><path fill="rgb(83,175,255)" stroke="rgb(83,175,255)" stroke-width="1" opacity="0.2235294117647059" d="M 136.5 356 L 139 356.5 L 136.5 357 L 136.5 356 Z " /><path fill="rgb(83,175,255)" stroke="rgb(83,175,255)" stroke-width="1" opacity="0.2235294117647059" d="M 97.5 357 L 101 357.5 L 97.5 358 L 97.5 357 Z " /><path fill="rgb(83,175,255)" stroke="rgb(83,175,255)" stroke-width="1" opacity="0.2235294117647059" d="M 130.5 357 L 134 357.5 L 130.5 358 L 130.5 357 Z " /><path fill="rgb(83,175,255)" stroke="rgb(83,175,255)" stroke-width="1" opacity="0.2235294117647059" d="M 104.5 358 L 113 358.5 L 104.5 359 L 104.5 358 Z " /><path fill="rgb(83,175,255)" stroke="rgb(83,175,255)" stroke-width="1" opacity="0.2235294117647059" d="M 118.5 358 L 127 358.5 L 118.5 359 L 118.5 358 Z " /><path fill="rgb(110,192,255)" stroke="rgb(110,192,255)" stroke-width="1" opacity="0.9921568627450981" d="M 110.5 153 L 120.5 153 L 121.5 154 L 129.5 154 L 130.5 155 L 136 155.5 L 14.5 267 L 13 267 L 14 264.5 L 13 263.5 L 13 244.5 L 14 243.5 L 14 238.5 L 15 237.5 L 15 233.5 L 17 228.5 L 17 225.5 L 23 212.5 L 23 210.5 L 36 190.5 L 49.5 177 L 65.5 166 L 80.5 159 L 83.5 159 L 90.5 156 L 94.5 156 L 100.5 154 L 109.5 154 L 110.5 153 Z " /><path fill="rgb(101,184,255)" stroke="rgb(101,184,255)" stroke-width="1" opacity="0.996078431372549" d="M 157.5 164 L 160.5 164 Q 161.25 166.75 165.5 166 L 174.5 172 L 178.5 176 L 180 176 L 180 178.5 L 172.5 186 L 143.5 212 L 141.5 212 L 139.5 210 L 137.5 210 L 128.5 206 L 125.5 206 L 120.5 204 L 114 203.5 L 157.5 164 Z " /><path fill="rgb(101,184,255)" stroke="rgb(101,184,255)" stroke-width="1" opacity="0.996078431372549" d="M 63.5 250 L 65 267.5 L 69 279.5 L 31.5 314 L 27 308.5 L 19 290.5 L 63.5 250 Z " /><path fill="rgb(105,188,255)" stroke="rgb(105,188,255)" stroke-width="1" opacity="0.9921568627450981" d="M 130.5 154 L 130.5 155 L 130.5 154 Z " /><path fill="rgb(105,188,255)" stroke="rgb(105,188,255)" stroke-width="1" opacity="0.9921568627450981" d="M 135.5 156 L 140.5 156 L 144.5 158 L 147.5 158 L 160 163.5 L 157.5 164 L 114 203.5 L 121 204.5 L 106.5 205 L 105.5 206 L 102.5 206 L 96.5 208 Q 85.52 212.52 78 220.5 L 73 226.5 L 68 235.5 L 65 244.5 L 65 250 L 63.5 250 L 58.5 254 L 25.5 285 L 19.5 290 L 18 290 L 17 283.5 L 16 282.5 L 16 279.5 L 15 278.5 L 15 274.5 L 14 273.5 L 14 268.5 L 13 267.5 L 135.5 156 Z " /><path fill="rgb(105,188,255)" stroke="rgb(105,188,255)" stroke-width="1" opacity="0.9921568627450981" d="M 161.5 164 L 164 165.5 L 162.5 166 Q 160 165 161.5 164 Z " /><path fill="rgb(105,188,255)" stroke="rgb(105,188,255)" stroke-width="1" opacity="0.9921568627450981" d="M 13.5 264 L 13.5 265 L 13.5 264 Z " /><path fill="rgb(105,188,255)" stroke="rgb(105,188,255)" stroke-width="1" opacity="0.9921568627450981" d="M 20.5 293 L 21 294.5 L 20 294.5 L 20.5 293 Z " /><path fill="rgb(91,176,255)" stroke="rgb(91,176,255)" stroke-width="1" opacity="0.9921568627450981" d="M 198.5 196 L 203 202.5 L 211 218.5 L 213 225.5 L 166 268.5 L 165.5 270 L 165 268.5 L 166 267.5 Q 164.75 262.75 167 261.5 L 167 250.5 L 166 249.5 L 165 240.5 L 163 237.5 L 161 230.5 L 198.5 196 Z " /><path fill="rgb(91,176,255)" stroke="rgb(91,176,255)" stroke-width="1" opacity="0.9921568627450981" d="M 159.5 229 L 159.5 230 L 159.5 229 Z " /><path fill="rgb(91,176,255)" stroke="rgb(91,176,255)" stroke-width="1" opacity="0.9921568627450981" d="M 86.5 298 L 88.5 300 L 102.5 306 Q 105.75 305.25 106.5 307 L 123 307.5 L 77 349.5 L 76.5 351 L 60.5 343 L 49 333.5 L 53.5 328 L 86.5 298 Z " /><path fill="rgb(91,176,255)" stroke="rgb(91,176,255)" stroke-width="1" opacity="0.9921568627450981" d="M 132.5 304 L 132.5 305 L 132.5 304 Z " /><path fill="rgb(91,176,255)" stroke="rgb(91,176,255)" stroke-width="1" opacity="0.9921568627450981" d="M 125.5 306 L 125.5 307 L 125.5 306 Z " /><path fill="rgb(59,151,255)" stroke="rgb(59,151,255)" stroke-width="1" opacity="0.9921568627450981" d="M 369.5 230 L 470.5 230 Q 471.25 231.75 474.5 231 L 476 230.5 L 408.5 293 L 402.5 298 L 398 298 L 398 302.5 L 396.5 304 L 365.5 332 L 362.5 330 Q 361.5 332 360.5 330 Q 355 328 352 323.5 L 347 313.5 L 347 282 L 313.5 282 L 312.5 281 L 300 280.5 L 352.5 232 L 354.5 231 L 368.5 231 L 369.5 230 Z " /><path fill="rgb(47,142,255)" stroke="rgb(47,142,255)" stroke-width="1" opacity="0.9882352941176471" d="M 471.5 230 L 483.5 232 Q 491 235 495 241.5 L 499 250.5 L 499 261.5 L 495 270.5 L 487.5 278 L 480.5 281 L 474 282 L 474 307.5 L 473 308.5 L 473 314.5 L 469 322.5 L 463.5 328 L 456.5 332 Q 453.25 331.25 452.5 333 L 443.5 333 L 433.5 329 L 426 321.5 L 422 310.5 L 422 298 L 403 297.5 L 475 231.5 L 471.5 231 L 471.5 230 Z " /><path fill="rgb(47,142,255)" stroke="rgb(47,142,255)" stroke-width="1" opacity="0.9882352941176471" d="M 397.5 303 L 398 310.5 Q 396 311.5 397 315.5 L 394 321.5 L 386.5 329 L 376.5 333 L 367.5 333 L 366 331.5 L 372.5 325 L 397.5 303 Z " /><path fill="rgb(47,142,255)" stroke="rgb(47,142,255)" stroke-width="1" opacity="0.9882352941176471" d="M 362.5 330 L 362.5 331 L 362.5 330 Z " /><path fill="rgb(47,142,255)" stroke="rgb(47,142,255)" stroke-width="1" opacity="0.9882352941176471" d="M 364.5 331 L 364.5 332 L 364.5 331 Z " /><path fill="rgb(97,181,255)" stroke="rgb(97,181,255)" stroke-width="1" opacity="0.9921568627450981" d="M 177.5 174 Q 180 175 178.5 176 Q 176 175 177.5 174 Z " /><path fill="rgb(97,181,255)" stroke="rgb(97,181,255)" stroke-width="1" opacity="0.9921568627450981" d="M 180.5 177 L 191 186.5 L 198 196.5 L 160.5 231 L 158 226.5 L 150.5 218 L 143 212.5 L 180 178.5 L 180.5 177 Z " /><path fill="rgb(97,181,255)" stroke="rgb(97,181,255)" stroke-width="1" opacity="0.9921568627450981" d="M 139.5 210 L 139.5 211 L 139.5 210 Z " /><path fill="rgb(97,181,255)" stroke="rgb(97,181,255)" stroke-width="1" opacity="0.9921568627450981" d="M 69.5 279 L 73 285.5 L 80.5 294 L 86 298.5 L 49 332.5 L 48.5 334 Q 38.43 325.57 31 314.5 L 69.5 279 Z " /><path fill="rgb(76,165,255)" stroke="rgb(76,165,255)" stroke-width="1" opacity="0.9882352941176471" d="M 258.5 230 L 369 230.5 L 354.5 231 L 352.5 232 L 300 280.5 L 313 281.5 L 214 282 L 211 293.5 L 203 309.5 Q 195.13 322.13 184.5 332 Q 172.67 342.67 157.5 350 L 155.5 350 L 152.5 352 L 143.5 355 L 127.5 358 L 127.5 357 L 131.5 355 L 266 231.5 L 258.5 231 L 258.5 230 Z " /><path fill="rgb(76,165,255)" stroke="rgb(76,165,255)" stroke-width="1" opacity="0.9882352941176471" d="M 117.5 358 L 117.5 359 L 117.5 358 Z " /><path fill="rgb(84,171,255)" stroke="rgb(84,171,255)" stroke-width="1" opacity="0.996078431372549" d="M 212.5 226 Q 214.75 227 214 230 L 257.5 230 L 258.5 231 L 266 231.5 L 131.5 355 L 126.5 358 L 117.5 358 Q 116.75 359.75 113.5 359 L 112.5 358 L 101.5 358 Q 100.25 355.75 95.5 357 L 94.5 356 L 91.5 356 L 90.5 355 L 87.5 355 L 78.5 352 L 77 350.5 L 79.5 347 L 123.5 307 Q 142.26 303.26 153 291.5 L 161 280.5 L 166 268.5 L 170.5 264 L 212.5 226 Z " /></svg>